<svg width="15" height="16" viewBox="0 0 15 16" fill="none" xmlns="http://www.w3.org/2000/svg">
<path d="M7.5 0.5C3.36437 0.5 0 3.86437 0 8C0 12.1356 3.36437 15.5 7.5 15.5C11.6356 15.5 15 12.1356 15 8H13.3125C13.3125 11.205 10.705 13.8125 7.5 13.8125C4.295 13.8125 1.6875 11.205 1.6875 8C1.6875 4.795 4.295 2.1875 7.5 2.1875V0.5ZM12.125 2.11437L7.43438 7.97125L5.2425 6.175L3.99125 7.6975L6.95437 10.1275C7.05504 10.2105 7.17123 10.2727 7.29617 10.3104C7.42111 10.348 7.55229 10.3605 7.68208 10.3469C7.81187 10.3333 7.93766 10.2941 8.05212 10.2314C8.16658 10.1687 8.26741 10.0839 8.34875 9.98187L13.6637 3.34625L12.125 2.11437Z" fill="#0065F7"/>
</svg>
