<svg width="25" height="25" viewBox="0 0 25 25" fill="none" xmlns="http://www.w3.org/2000/svg">
<g clip-path="url(#clip0_99_130)">
<path d="M14.7579 15.4998V19.9899C15.1304 20.0175 15.347 20.2335 15.4991 20.5522C15.7139 21.0018 15.9455 21.4439 16.1753 21.8866C16.4483 22.4138 16.0889 22.9974 15.4816 22.9974C12.5534 22.9992 9.62525 22.998 6.69707 22.998C5.65841 22.998 4.61974 22.9986 3.5817 22.998C2.90615 22.9974 2.56431 22.4507 2.86295 21.8446C3.08647 21.39 3.32187 20.9417 3.54225 20.4858C3.68375 20.1934 3.90287 20.0237 4.24033 19.9912V15.4991C3.73383 15.4991 3.22921 15.5079 2.72459 15.4966C2.15861 15.4841 1.81364 14.8617 2.10665 14.3789C2.1799 14.2581 2.29886 14.1473 2.42282 14.0778C4.64854 12.8342 6.87864 11.5982 9.10623 10.3584C9.41426 10.1875 9.69788 10.2426 9.99088 10.406C11.9987 11.5268 14.0091 12.642 16.0188 13.7591C16.2166 13.8686 16.4157 13.9751 16.6129 14.0859C16.9391 14.27 17.085 14.6119 16.9892 14.9619C16.9034 15.2756 16.6023 15.4973 16.2498 15.4991C15.7596 15.5016 15.2687 15.4998 14.7579 15.4998ZM6.48608 19.9906V15.5192H5.76421V19.9906H6.48608ZM8.01748 15.5104V19.9818H8.73997V15.5104H8.01748ZM10.267 15.5104V19.9818H10.9895V15.5104H10.267ZM12.5109 19.9843H13.2334V15.5123H12.5109V19.9843Z" fill="#2ECC71"/>
<path d="M23 18.5158C22.9981 20.5859 21.3183 22.2514 19.236 22.2489C17.1662 22.247 15.5014 20.5677 15.5039 18.4845C15.5058 16.4056 17.1887 14.747 19.2911 14.752C21.3421 14.757 23.0025 16.442 23 18.5158ZM20.0004 19.6253C20.0004 20.0192 19.6936 20.3523 19.3105 20.3736C18.8791 20.398 18.546 20.1093 18.5028 19.6729C18.4759 19.403 18.3138 19.234 18.099 19.2534C17.8686 19.2741 17.7234 19.4801 17.7584 19.7512C17.8361 20.3498 18.1504 20.7706 18.7063 21.0148C18.7771 21.0461 18.8528 21.1187 18.8791 21.1895C18.9461 21.3698 19.0557 21.4925 19.2485 21.4938C19.442 21.495 19.5553 21.3748 19.6204 21.1932C19.6442 21.1269 19.7074 21.0536 19.7706 21.0267C20.4437 20.7393 20.845 20.0793 20.7323 19.4287C20.5983 18.656 20.038 18.1626 19.2504 18.1244C18.8165 18.1038 18.506 17.7976 18.5022 17.3868C18.4985 16.9817 18.8102 16.643 19.2034 16.6267C19.636 16.6085 19.9541 16.894 19.9998 17.3392C20.0267 17.6028 20.2001 17.7732 20.4149 17.745C20.6359 17.7162 20.7768 17.5183 20.7442 17.2597C20.6697 16.6624 20.3617 16.2372 19.8063 15.9886C19.7243 15.9523 19.6492 15.8603 19.611 15.7764C19.5352 15.6085 19.415 15.4764 19.2435 15.514C19.1145 15.5422 18.9592 15.6624 18.9104 15.7807C18.8572 15.9085 18.7896 15.9573 18.68 16.003C18.0208 16.2804 17.6539 16.9485 17.7822 17.6273C17.9218 18.3649 18.4815 18.8364 19.2623 18.8752C19.6899 18.8965 19.9992 19.2108 19.9992 19.6241L20.0004 19.6253Z" fill="#2ECC71"/>
<path d="M14.7364 12.1917C14.6149 12.1266 14.5135 12.074 14.414 12.0183C13.5894 11.5599 12.7668 11.0978 11.9385 10.6457C11.8063 10.5737 11.75 10.5005 11.75 10.342C11.7556 7.82741 11.7538 5.31214 11.7544 2.7975C11.7544 2.31098 12.0574 2.00667 12.5395 2.00416C13.0316 2.00229 13.5237 1.99978 14.0152 2.00542C14.4246 2.0098 14.7489 2.32413 14.7496 2.7305C14.7521 5.85439 14.7508 8.97828 14.7496 12.1028C14.7496 12.1185 14.7452 12.1335 14.7352 12.1917H14.7364Z" fill="#2ECC71"/>
<path d="M21.5383 4.53252C20.7351 5.33525 19.9506 6.1192 19.1668 6.90252C18.6865 7.38216 18.3197 7.38466 17.8463 6.90941C17.5715 6.6339 17.3004 6.35464 17.0074 6.05659C16.509 6.55814 16.0282 7.0409 15.5036 7.56875C15.5036 6.95449 15.5198 6.40348 15.4973 5.85371C15.4854 5.55754 15.5605 5.33713 15.7903 5.14365C16.0219 4.94766 16.2223 4.71473 16.4402 4.50247C16.7908 4.16059 17.2134 4.15746 17.5602 4.49808C17.8708 4.80365 18.1732 5.11798 18.4624 5.41227C19.1323 4.74542 19.7822 4.09797 20.4389 3.44426C20.1823 3.29211 19.9919 3.07295 20.0026 2.72794C20.0138 2.3366 20.3237 2.01225 20.7176 2.00661C21.2403 1.9991 21.7637 1.9991 22.2871 2.00661C22.6791 2.01225 22.9934 2.33409 22.999 2.72982C23.0053 3.22198 23.0021 3.71351 23.0002 4.20567C22.999 4.59138 22.8093 4.86439 22.4706 4.97208C22.1419 5.07665 21.8245 4.95017 21.606 4.62707C21.5891 4.60265 21.5715 4.57823 21.5396 4.53252H21.5383Z" fill="#2ECC71"/>
<path d="M10.9784 10.1016C10.4813 9.86616 10.0581 9.49485 9.48459 9.50299C8.9255 9.51113 8.50978 9.87806 8.00391 10.1154V9.86679C8.00391 8.27448 8.00391 6.68216 8.00391 5.08985C8.00391 4.54134 8.29128 4.25393 8.8391 4.25331C9.31492 4.25331 9.79137 4.24955 10.2672 4.25456C10.6641 4.25894 10.9966 4.56951 10.9978 4.95836C11.0035 6.65211 10.9997 8.34586 10.9991 10.0396C10.9991 10.0534 10.9903 10.0672 10.9778 10.1016H10.9784Z" fill="#2ECC71"/>
<path d="M4.25418 12.1672C4.25418 11.4684 4.25418 10.7821 4.25418 10.0959C4.25418 9.16664 4.25356 8.2368 4.25418 7.30759C4.25481 6.80604 4.55345 6.50486 5.05181 6.50361C5.52826 6.50173 6.00471 6.5011 6.48115 6.50361C6.93444 6.50611 7.24935 6.81606 7.25061 7.26564C7.25374 8.29629 7.25436 9.32757 7.24685 10.3582C7.24685 10.4415 7.19676 10.5648 7.13165 10.6018C6.20255 11.1284 5.26718 11.6431 4.33244 12.1603C4.32055 12.1672 4.30302 12.1634 4.25418 12.1672Z" fill="#2ECC71"/>
</g>
<defs>
<clipPath id="clip0_99_130">
<rect width="21" height="21" fill="white" transform="translate(2 2)"/>
</clipPath>
</defs>
</svg>
