<svg width="365" height="268" viewBox="0 0 365 268" fill="none" xmlns="http://www.w3.org/2000/svg">
<g clip-path="url(#clip0_121_28)">
<path d="M180.204 34.8547C180.204 51.1792 180.141 67.5668 180.267 83.8914C180.267 88.6185 180.141 93.4718 181.526 98.1359C181.652 99.3965 180.645 99.9008 179.889 100.531C169.126 108.851 162.517 119.629 160.692 133.18C159.936 138.979 160.566 144.778 160.44 150.576C160.44 151.396 160.377 152.215 159.999 152.971C157.419 155.366 154.083 156.564 151.25 158.518C150.054 159.337 148.732 159.905 148.229 161.417C147.536 164.506 148.355 167.657 147.725 170.746C146.718 172.952 144.515 173.582 142.627 174.653C129.157 182.469 115.624 190.222 102.155 198.1C101.462 198.478 100.581 198.73 100.329 200.117C102.28 199.487 103.791 198.415 105.365 197.533C118.079 190.222 130.731 182.847 143.508 175.599C144.767 174.905 146.341 172.826 147.851 175.536C147.977 175.977 148.04 176.355 148.04 176.796C147.788 187.448 149.11 198.1 148.732 208.815C148.732 210.265 149.11 212.03 147.222 212.849C146.907 206.924 146.844 206.798 141.746 209.761C125.758 218.963 109.771 228.228 93.7831 237.493C81.3834 244.679 68.9836 251.801 56.5209 258.923C55.0102 259.806 53.3108 260.373 51.4854 260.247C47.9606 261.192 46.1982 260.499 43.8693 257.222C42.7364 254.889 42.3587 252.494 42.3587 249.91C42.3587 196.02 41.3516 142.13 41.7293 88.2404C41.7293 87.2949 41.7293 86.3495 41.7922 85.4671C42.7364 76.8951 45.6317 69.2686 52.1778 63.3438C55.3879 60.4445 59.2274 58.5536 62.9411 56.4106C87.9924 41.9139 113.044 27.4172 138.158 12.9835C139.669 12.1011 141.242 10.0212 143.319 12.1642C144.138 15.6938 143.634 19.2234 143.697 22.7531C143.76 27.1021 143.886 31.5141 143.697 35.8631C143.508 39.5188 144.515 42.4182 147.662 44.4351C150.621 46.8302 153.642 47.0193 156.915 45.0654C163.461 41.2206 170.07 37.4389 176.679 33.6571C178.316 32.7117 179.889 31.8923 180.33 34.7916L180.204 34.8547Z" fill="#231F20"/>
<path d="M42.612 84.3958C42.612 118.621 42.2343 152.845 42.8008 187.007C43.1155 208.5 43.0526 229.93 43.1784 251.423C43.1784 253.692 44.5002 255.583 44.5002 257.789C42.9896 258.293 41.8566 257.411 40.7237 256.781C36.3177 254.196 31.9116 251.675 27.5056 249.028C25.5544 247.83 23.9808 246.192 23.6032 243.986C22.8479 239.826 22.2814 235.54 22.4702 231.254C22.4702 230.623 22.7849 230.056 23.2255 229.552C23.2255 177.553 23.2255 125.617 23.2255 73.6178C23.792 73.0506 24.3585 73.2396 24.925 73.4918C30.5269 76.5802 36.0029 79.8577 41.5419 83.1352C41.9825 83.3873 42.2343 83.8916 42.612 84.2697V84.3958Z" fill="#303030"/>
<path d="M42.6126 84.3958C36.5071 81.4964 30.9052 77.6517 24.9256 74.4372C24.422 74.122 23.7926 73.9329 23.2891 73.7439C23.5408 62.4616 28.828 54.2048 38.4583 48.6582C52.2428 40.5905 66.1533 32.7119 79.9378 24.7072C93.8482 16.6394 107.759 8.63473 121.669 0.503969C122.739 -0.126323 123.557 -0.126323 124.501 0.503969C130.544 4.15966 136.901 7.18506 142.692 11.2189C142.881 11.345 142.944 11.471 142.881 11.5971C142.818 11.7232 142.755 11.7862 142.692 11.7862C137.09 13.9922 132.118 17.5218 126.893 20.4842C115.123 27.1023 103.478 33.9094 91.7711 40.7166C79.7489 47.7128 67.538 54.4569 55.7047 61.7683C48.4663 66.2434 44.375 73.1766 43.1791 81.6855C43.0532 82.631 42.7385 83.5134 42.5496 84.3958H42.6126Z" fill="#3D3D3D"/>
<path d="M147.16 212.913C148.104 207.87 147.412 202.765 147.475 197.66C147.475 189.97 147.223 182.217 147.097 174.528C146.09 173.456 146.531 172.385 147.097 171.313C147.601 167.784 146.468 164.191 147.664 160.725C148.23 161.166 148.356 161.796 148.482 162.426C148.797 172.322 146.783 170.053 155.972 175.41C165.477 180.957 165.54 181.083 175.17 175.599C189.206 167.532 203.242 159.401 217.279 151.27C218.601 150.514 219.734 149.316 221.496 149.505C221.496 161.796 221.685 174.087 221.622 186.377C221.622 190.852 222.692 195.264 221.622 199.74C220.174 197.534 220.741 195.328 221.118 193.374C204.627 202.954 187.696 212.787 170.701 222.493C167.365 224.384 163.651 224.321 160.252 222.304C156.161 219.846 151.881 217.703 148.104 215.056C148.734 216.19 148.797 217.451 147.664 218.585C146.971 216.757 147.538 214.867 147.223 212.976L147.16 212.913Z" fill="#3D3D3D"/>
<path d="M147.79 162.679C147.79 162.048 147.664 161.355 147.664 160.725C148.923 158.141 151.692 157.636 153.832 156.25C155.658 155.052 157.42 153.792 159.56 153.161C160.882 154.548 160.379 156.313 160.316 157.888C160.316 158.204 160.19 158.456 160.064 158.771C159.371 160.031 157.924 161.103 158.868 162.805C159.246 163.372 159.812 163.75 160.441 164.002C163.211 165.263 166.106 165.137 168.939 164.443C170.009 164.065 171.016 163.561 171.519 162.427C171.519 162.3 171.645 162.174 171.582 162.111C168.75 158.519 169.631 154.107 168.939 150.01C168.75 149.064 168.687 148.056 169.002 147.11C171.142 144.463 174.415 143.392 177.121 141.564C178.254 140.808 179.45 140.24 180.583 139.484C185.808 136.711 190.843 133.685 195.878 130.723C196.886 130.156 197.83 129.084 199.214 130.093C199.781 131.164 199.655 132.299 199.718 133.433C199.718 134.189 199.655 135.009 199.403 135.765C198.9 136.963 197.326 137.845 198.144 139.484C198.459 140.051 198.963 140.492 199.529 140.871C202.55 142.446 205.572 142.888 208.782 141.312C209.663 140.871 210.355 140.366 210.859 139.547C211.677 137.152 209.034 136.585 208.53 134.883C208.467 134.568 208.404 134.316 208.404 134C208.593 132.929 208.593 131.857 209.474 131.038C212.81 132.929 216.146 134.757 219.482 136.711C220.678 137.404 221.685 138.349 221.37 139.988C220.993 141.375 220.237 142.32 218.979 143.014C203.054 152.216 187.066 161.355 171.142 170.62C167.491 172.763 163.966 173.078 160.253 170.935C156.854 168.982 153.392 167.028 149.993 165.011C148.986 164.38 148.168 163.624 147.727 162.553L147.79 162.679Z" fill="#3D3D3D"/>
<path d="M169.693 147.047C169.693 148.119 169.504 149.253 170.007 150.325C169.881 150.64 169.756 150.892 169.63 151.207C165.916 153.854 162.769 153.728 159.685 150.766C159.873 143.392 158.866 136.017 160.629 128.769C163.65 116.415 170.133 106.33 180.771 99.1452C181.085 98.8931 181.337 98.5149 181.589 98.2628C184.988 97.1282 188.135 95.2374 191.911 95.0483C201.794 94.418 208.025 101.225 208.906 110.301C209.598 117.108 209.347 123.979 209.536 130.786C207.836 130.345 208.591 128.769 208.088 127.76C204.626 128.769 201.29 129.273 198.709 125.933C197.828 123.411 198.332 120.827 198.206 118.243C198.143 116.793 198.206 115.344 198.206 113.894C198.08 106.267 194.114 103.998 187.568 107.843C185.302 109.167 183.414 110.869 181.463 112.57C173.973 120.701 170.007 130.219 170.511 141.375C170.574 143.329 170.826 145.346 169.756 147.173L169.693 147.047Z" fill="#3D3D3D"/>
<path d="M23.2882 229.615C23.4771 233.712 23.54 237.872 23.9806 241.969C24.2324 244.742 25.5542 246.948 28.1978 248.398C33.7368 251.423 39.1499 254.638 44.563 257.789C46.6401 259.239 48.7172 260.689 51.4238 260.31C47.7731 263.084 43.7447 265.29 39.5905 267.055C36.4433 268.378 33.2332 268.252 30.2749 266.55C21.1482 261.382 12.0844 256.087 3.08354 250.793C-0.69304 248.524 -1.0707 243.734 2.51705 241.465C9.3149 237.305 16.3645 233.523 23.2882 229.615Z" fill="#231F20"/>
<path d="M147.603 218.522C147.729 217.199 147.792 215.875 147.918 214.236C152.198 216.695 156.352 219.027 160.443 221.485C163.779 223.502 167.178 223.502 170.451 221.674C183.292 214.299 196.132 206.862 208.972 199.425C213.001 197.092 217.029 194.823 221.561 192.239C221.561 195.076 221.561 197.408 221.561 199.74C221.687 201.442 220.428 202.072 219.295 202.765C202.993 212.219 186.691 221.611 170.388 231.002C167.178 232.893 163.842 232.767 160.632 230.876C157.485 229.111 154.464 226.968 151.191 225.456C147.981 224.006 146.974 221.737 147.54 218.522H147.603Z" fill="#231F20"/>
<path d="M147.79 162.679C151.944 165.641 156.476 167.973 160.819 170.494C164.092 172.448 167.239 172.196 170.512 170.305C185.87 161.355 201.291 152.405 216.712 143.455C218.412 142.509 220.363 141.942 221.433 140.114C221.433 143.266 221.433 146.354 221.433 149.506C212.747 154.611 204.061 159.716 195.375 164.822C187.633 169.36 179.891 173.772 172.212 178.31C167.932 180.831 163.903 181.587 159.497 178.373C156.791 176.419 153.832 174.843 150.874 173.394C148.419 172.259 147.475 170.62 147.727 167.973C147.916 166.208 147.79 164.444 147.79 162.679Z" fill="#231F20"/>
<path d="M180.204 34.8556C179.26 32.6496 177.938 33.7211 176.617 34.4774C169.819 38.3852 163.021 42.2931 156.223 46.2009C153.139 48.0287 150.369 47.5245 147.663 45.5075C147.159 44.1209 146.719 42.7973 146.719 41.2846C146.719 32.6496 146.719 24.0146 146.719 15.3796C146.719 14.7493 146.719 14.119 147.096 13.5518C154.964 17.9638 162.769 22.3128 170.574 26.7879C173.155 28.2376 175.735 29.9393 178.316 31.326C179.827 32.1454 180.393 33.2169 180.141 34.8556H180.204Z" fill="#3D3D3D"/>
<path d="M147.099 13.6144C147.791 14.7489 147.728 16.0095 147.728 17.207C147.728 25.0857 147.791 32.9643 147.728 40.78C147.728 42.3557 148.61 43.9314 147.728 45.5071C143.826 43.6163 142.441 40.5909 142.63 36.2419C142.945 28.0481 142.693 19.9173 142.693 11.7235C142.693 11.5344 142.693 11.3453 142.693 11.1562C144.141 11.9756 145.588 12.795 147.099 13.6144Z" fill="#4C4C4D"/>
<path d="M199.09 125.743C202.363 128.012 203.685 128.138 208.72 126.815C209.413 128.012 208.406 129.525 209.476 130.659C209.476 130.849 209.539 130.975 209.539 131.164C209.35 132.235 209.161 133.37 208.909 134.441C205.888 137.971 201.356 137.656 199.027 133.874C199.027 132.676 198.901 131.479 198.838 130.281C197.768 128.769 197.705 127.256 199.027 125.806L199.09 125.743Z" fill="#231F20"/>
<path d="M61.4968 205.286C65.6511 196.903 70.9383 189.591 80.5686 186.881C86.0446 185.368 90.9542 188.457 92.0242 194.003C93.9125 203.773 90.3247 212.093 84.6598 219.782C83.5269 220.161 82.8345 221.169 82.0162 221.862C79.0579 224.447 75.8478 226.463 71.8195 226.716C64.8957 227.157 60.6786 223.312 59.9862 216.316C59.6085 212.471 60.9933 208.941 61.5598 205.286H61.4968Z" fill="#A481BB"/>
<path d="M60.864 102.548C63.5076 95.8039 67.7248 90.2573 73.5155 85.9083C75.3409 84.5216 77.418 83.5132 79.621 82.8198C85.7265 80.992 90.8878 83.8913 92.0837 90.1312C93.7832 98.9553 90.699 106.645 85.8523 113.83C82.894 116.54 80.2504 119.629 76.4109 121.331C67.5989 125.238 60.4234 120.826 59.9828 111.183C59.8569 108.221 60.6122 105.447 60.9269 102.548H60.864Z" fill="#EE585E"/>
<path d="M62.6269 151.144C65.837 144.589 70.3689 139.357 76.9149 136.017C85.2864 131.794 92.273 136.017 92.5877 145.471C92.8395 152.467 90.4477 158.707 86.797 164.569C85.2863 165.64 84.4051 167.216 83.0833 168.477C80.5027 171.502 77.1667 173.33 73.3901 174.338C66.2146 176.292 60.8015 172.069 59.9833 164.191C59.6685 161.165 60.235 158.203 60.9903 155.304C61.5568 153.917 62.2492 152.593 62.5639 151.144H62.6269Z" fill="#FCB752"/>
<path d="M100.267 149.253C99.5113 149.253 99.0707 148.875 98.8818 148.371C98.693 147.866 98.8189 147.299 99.2595 146.984C99.826 146.543 100.455 146.165 101.085 145.786C122.171 133.622 143.257 121.394 164.28 109.23C164.909 108.851 165.538 108.473 166.168 108.221C166.797 107.969 167.364 108.032 167.804 108.662C168.371 109.482 167.93 110.049 167.301 110.553C166.734 110.994 166.105 111.31 165.413 111.688C144.453 123.789 123.43 135.954 102.47 148.056C101.651 148.497 100.833 148.938 100.141 149.253H100.267Z" fill="#686768"/>
<path d="M168.123 57.1679C167.871 58.5545 166.612 58.8697 165.668 59.4369C153.898 66.2441 142.127 73.1143 130.357 79.9214C121.356 85.1528 112.355 90.3212 103.354 95.4896C102.536 95.9308 101.718 96.4351 100.9 96.8132C100.207 97.1284 99.3889 97.2544 98.9483 96.4351C98.5707 95.6787 98.8854 94.9854 99.5148 94.5442C100.018 94.166 100.585 93.9139 101.088 93.5987C122.111 81.4341 143.197 69.2695 164.22 57.1049C164.913 56.6637 165.668 56.2855 166.486 56.0334C167.304 55.7812 167.808 56.3485 168.06 57.1049L168.123 57.1679Z" fill="#676768"/>
<path d="M147.1 171.313V174.528C132.434 182.974 117.705 191.42 103.039 199.866C102.788 199.992 102.536 200.244 102.221 200.307C101.151 200.685 100.018 202.387 99.0741 200.622C98.1299 198.983 99.8923 198.542 100.899 197.975C116.32 189.088 131.679 180.201 147.1 171.313Z" fill="#686868"/>
<path d="M61.4329 155.177C61.1181 159.274 60.0481 163.308 61.5587 167.405C63.5729 172.952 67.853 175.158 73.5179 173.519C77.2945 172.384 80.3787 170.178 83.2741 167.657C83.9035 167.531 84.1553 167.72 83.9664 168.414C81.0081 172.636 77.1686 175.725 72.3849 177.49C64.8318 180.263 58.8522 175.977 58.3486 167.531C58.0969 162.993 59.041 158.644 60.9293 154.484C61.4329 154.421 61.7476 154.484 61.4958 155.114L61.4329 155.177Z" fill="#F6951F"/>
<path d="M61.496 205.286C62.629 206.736 61.3701 208.059 61.1813 209.383C60.6778 212.471 60.426 215.56 61.2443 218.585C62.9437 224.825 67.7274 227.346 73.8958 225.582C76.6653 224.825 78.9942 223.312 81.1343 221.485C82.1413 220.665 82.9596 219.342 84.5961 219.72C81.8896 223.628 78.4277 226.779 74.1476 228.796C65.5873 232.893 58.6007 228.544 58.3489 219.09C58.223 214.236 59.4189 209.635 61.496 205.286Z" fill="#8D68AD"/>
<path d="M60.8646 102.549C61.494 105.511 60.424 108.411 60.7387 111.31C61.1164 114.65 61.8087 117.802 64.5782 120.071C67.7883 122.718 71.3131 122.34 74.8379 121.016C78.048 119.819 80.8805 117.928 83.2723 115.407C83.9017 114.713 84.3423 113.327 85.79 113.831C82.8317 118.495 79.0551 122.214 74.0826 124.672C65.6483 128.769 58.8504 124.672 58.3469 115.281C58.0951 110.869 59.1022 106.646 60.8646 102.612V102.549Z" fill="#E04553"/>
<path d="M100.518 82.6945C99.7629 82.6315 99.2594 82.5054 99.0706 81.9382C98.8817 81.4339 98.9447 80.8667 99.4482 80.5515C99.9518 80.1734 100.455 79.8582 101.022 79.5431C111.974 73.1771 122.989 66.8742 133.941 60.5083C134.507 60.1931 135.011 59.878 135.578 59.6259C136.207 59.3107 136.773 59.4368 137.214 60.004C137.781 60.7604 137.466 61.3907 136.836 61.8949C136.333 62.2731 135.829 62.5882 135.263 62.9034C124.374 69.2063 113.485 75.5092 102.595 81.7491C101.903 82.1273 101.148 82.4424 100.518 82.7576V82.6945Z" fill="#686868"/>
<path d="M100.458 134.883C99.8283 134.883 99.3247 134.631 99.0729 134.126C98.8212 133.622 98.8841 133.055 99.2618 132.677C99.8283 132.172 100.458 131.857 101.087 131.479C111.85 125.239 122.677 118.999 133.503 112.759C134.132 112.381 134.762 112.066 135.391 111.751C136.146 111.31 136.776 111.499 137.216 112.255C137.657 112.949 137.279 113.453 136.776 113.894C136.335 114.272 135.769 114.65 135.202 114.965C124.25 121.331 113.235 127.634 102.22 134C101.591 134.378 100.961 134.694 100.332 134.946L100.458 134.883Z" fill="#686868"/>
<path d="M137.466 164.821C137.277 165.83 136.585 166.208 135.829 166.649C124.5 173.204 113.17 179.759 101.84 186.314C100.959 186.818 99.8889 187.575 99.1965 186.314C98.4412 184.991 99.7 184.486 100.581 183.982C111.911 177.427 123.241 170.872 134.57 164.317C135.766 163.624 136.899 163.056 137.529 164.884L137.466 164.821Z" fill="#686868"/>
<path d="M159.622 150.766C162.958 152.593 166.294 152.846 169.63 150.766C170.196 153.287 169.756 155.871 169.882 158.455C167.679 162.426 162.769 162.615 159.685 158.959C159.685 157.069 159.559 155.115 159.496 153.224C159.496 152.404 159.559 151.648 159.622 150.829V150.766Z" fill="#231F20"/>
<path d="M83.9658 168.351C83.9658 168.351 83.5252 167.846 83.2734 167.594C84.2805 166.334 85.0358 164.884 86.7982 164.506C86.0429 165.893 85.2876 167.342 83.9658 168.288V168.351Z" fill="#F8A12D"/>
<path d="M61.4337 155.177C61.4337 155.177 61.056 154.736 60.8672 154.547C61.2448 153.287 61.6225 152.089 62.5666 151.144C62.6296 152.593 62.3149 153.98 61.3707 155.177H61.4337Z" fill="#F9A32C"/>
<path d="M207.965 169.485C212.686 172.385 212.686 177.112 211.994 181.65C210.609 190.411 206.329 197.659 199.027 202.828C194.244 206.231 189.963 206.294 185.872 203.332C184.299 201.252 183.669 198.731 183.921 196.273C185.054 184.927 189.775 175.788 200.223 170.242C202.741 168.918 205.259 168.351 208.028 169.485H207.965Z" fill="#BBC1E2"/>
<path d="M185.179 203.206C180.836 201.063 179.2 197.344 179.514 192.743C180.207 182.154 184.801 173.771 193.928 168.099C195.754 168.099 197.138 168.729 197.264 170.809C194.243 174.023 190.718 176.797 188.452 180.767C185.557 185.747 183.92 190.915 183.92 196.714C183.92 199.046 185.683 200.874 185.179 203.206Z" fill="#6666AE"/>
<path d="M185.177 203.206C181.086 191.167 185.932 177.805 197.01 170.683C199.339 167.721 201.668 167.09 205.822 168.225C206.515 168.603 207.27 169.044 207.963 169.422C198.395 169.359 192.982 175.347 188.639 182.785C184.925 189.214 183.478 196.021 185.87 203.269C185.681 203.269 185.429 203.269 185.24 203.206H185.177Z" fill="#D4D8EC"/>
<path d="M205.822 168.224C202.612 167.972 199.654 168.855 197.01 170.683C196.506 169.17 194.996 168.918 193.926 168.161C198.647 165.199 201.605 165.199 205.822 168.287V168.224Z" fill="#9A9FCB"/>
<path d="M180.898 111.94C180.898 121.394 180.898 130.912 180.898 140.366C177.122 142.572 173.408 144.778 169.631 146.984C169.191 138.034 169.38 129.147 174.037 121.016C175.926 117.675 178.003 114.524 180.835 111.877L180.898 111.94Z" fill="#231F20"/>
<path d="M199.151 133.874C202.235 136.962 205.571 136.584 209.033 134.441C209.159 134.693 209.285 134.882 209.348 135.134C209.537 136.143 209.977 137.088 209.851 138.16C209.726 139.42 210.418 140.87 209.348 142.004C205.76 144.021 202.361 143.58 199.025 141.437C198.585 140.618 198.333 139.735 198.207 138.853C198.207 137.907 198.396 137.025 198.962 136.269C199.025 135.449 199.088 134.63 199.151 133.811V133.874Z" fill="#231F20"/>
<path d="M159.749 158.96C163.085 161.166 166.358 161.481 169.631 158.96C170.198 159.527 170.387 160.157 170.45 160.913C170.576 162.363 170.45 163.813 169.82 165.136C166.358 166.397 162.959 166.649 159.623 164.569C158.931 163.624 158.805 162.615 158.742 161.481C158.742 160.535 159.12 159.716 159.498 158.896H159.686L159.749 158.96Z" fill="#231F20"/>
<path d="M170.01 160.788C169.885 160.157 169.759 159.464 169.633 158.834C169.948 156.123 169.885 153.413 169.633 150.703C169.696 150.514 169.822 150.388 169.948 150.262C170.01 152.027 170.199 153.791 170.199 155.493C170.199 157.321 170.199 158.96 172.025 160.094C173.158 160.851 172.969 162.048 172.276 163.12C171.206 162.615 170.262 161.985 170.01 160.725V160.788Z" fill="#3D3D3D"/>
<path d="M209.413 138.097C209.035 137.151 209.098 136.143 209.287 135.197C210.483 136.647 212.938 137.466 211.805 140.114C210.42 140.114 209.853 139.231 209.413 138.097Z" fill="#3D3D3D"/>
<path d="M170.009 160.787C170.89 161.48 172.086 161.796 172.275 163.182C171.646 164.065 170.827 164.632 169.82 165.01C169.82 163.623 169.946 162.174 170.009 160.787Z" fill="#5E514A"/>
<path d="M209.411 138.097C210.418 138.538 211.173 139.168 211.802 140.114C211.173 141.059 210.544 141.878 209.348 142.068C209.348 140.744 209.411 139.42 209.474 138.097H209.411Z" fill="#564F4C"/>
<path d="M159.496 158.834C159.496 159.653 159.496 160.535 159.496 161.355C158.993 161.922 159.181 163.056 158.111 163.183C157.167 161.292 157.797 159.842 159.496 158.771V158.834Z" fill="#3D3D3D"/>
<path d="M198.9 136.27C198.9 137.089 198.9 137.908 198.9 138.728C198.585 139.295 198.459 140.051 197.515 140.051C196.634 138.349 197.074 137.026 198.837 136.27H198.9Z" fill="#3D3D3D"/>
<path d="M158.113 163.246C158.302 162.426 158.743 161.796 159.498 161.418C159.498 162.426 159.561 163.498 159.624 164.506C159.12 164.065 158.617 163.687 158.113 163.246Z" fill="#5D5249"/>
<path d="M197.578 140.051C198.019 139.61 198.459 139.169 198.963 138.728C198.963 139.61 198.963 140.555 198.963 141.438C198.522 140.997 198.019 140.492 197.578 140.051Z" fill="#56504C"/>
<path d="M86.4208 199.55C86.169 200.117 85.8543 200.874 85.4766 201.63C82.3924 207.051 79.2453 212.471 76.0981 217.829C75.7205 218.459 75.2799 219.089 74.7134 219.404C72.888 220.413 64.8943 215.875 64.7054 213.858C64.5795 212.156 66.3419 211.148 68.2932 211.715C69.9926 212.219 71.3144 214.677 73.1398 213.354C74.4616 212.408 75.0281 210.391 75.9093 208.879C77.8605 205.475 79.8117 202.008 81.8259 198.605C82.5183 197.407 83.5254 196.714 84.9101 197.218C85.8543 197.533 86.4208 198.29 86.4837 199.613L86.4208 199.55Z" fill="#FEFEFE"/>
<path d="M86.4222 95.5527C86.1704 96.0569 85.9186 96.6872 85.6039 97.3175C82.5197 102.675 79.4355 107.906 76.4142 113.264C75.0924 115.659 73.5189 116.289 71.127 114.651C69.4905 113.516 67.6652 112.697 66.0286 111.688C64.8957 110.932 64.2033 109.923 65.0216 108.537C65.7769 107.213 66.9728 107.276 68.2946 107.591C69.9941 107.969 71.19 110.68 73.0783 109.23C74.4001 108.222 74.9666 106.268 75.8478 104.755C77.8619 101.225 79.8761 97.6957 81.9532 94.2291C82.5827 93.1576 83.4639 92.5273 84.8486 92.9685C85.9816 93.3467 86.4851 94.1661 86.4851 95.5527H86.4222Z" fill="#FFFDFD"/>
<path d="M86.4856 147.425C86.1709 148.119 85.8562 148.875 85.4156 149.568C82.3943 154.926 79.2471 160.22 76.2259 165.578C74.967 167.784 73.5193 168.225 71.3793 166.964C69.6169 165.893 67.7286 164.948 66.0291 163.813C64.8961 163.12 64.1408 162.048 65.022 160.662C65.7773 159.338 67.0362 159.275 68.2951 159.779C69.8057 160.409 71.4422 162.363 72.6381 161.67C74.1488 160.725 74.9041 158.519 75.8482 156.817C77.8624 153.413 79.8136 149.947 81.7649 146.543C82.4572 145.282 83.5273 144.778 84.912 145.219C85.982 145.535 86.2338 146.417 86.4856 147.488V147.425Z" fill="#FFFEFD"/>
<path d="M205.888 183.037C205.007 188.142 202.93 193.374 197.391 196.336C193.425 198.479 190.089 196.525 189.712 192.05C189.271 187.449 194.118 179.381 198.398 177.427C202.615 175.536 205.825 177.616 205.888 183.1V183.037Z" fill="#FEFEFE"/>
<path d="M197.139 191.987C196.069 190.789 196.509 189.087 195.376 187.764C194.243 186.44 195.376 184.36 196.635 183.037C197.516 182.091 198.523 180.641 200.16 182.154C199.908 185.684 198.523 188.835 197.202 192.05L197.139 191.987Z" fill="#383838"/>
<path d="M197.137 191.986C197.641 188.52 199.151 185.368 200.095 182.091C200.662 182.532 200.977 183.162 200.788 183.73C199.844 186.314 198.9 188.835 198.333 191.545C198.207 192.239 197.641 192.175 197.074 191.986H197.137Z" fill="#2A2A2A"/>
</g>
<path d="M275.333 41.5C275.333 42.9728 276.527 44.1667 278 44.1667C279.473 44.1667 280.667 42.9728 280.667 41.5C280.667 40.0272 279.473 38.8333 278 38.8333C276.527 38.8333 275.333 40.0272 275.333 41.5ZM239 41.5V42H278V41.5V41H239V41.5Z" fill="url(#paint0_linear_121_28)"/>
<path d="M359.333 93C359.333 94.4728 360.527 95.6667 362 95.6667C363.473 95.6667 364.667 94.4728 364.667 93C364.667 91.5272 363.473 90.3333 362 90.3333C360.527 90.3333 359.333 91.5272 359.333 93ZM289 93L289 93.5L362 93.5L362 93L362 92.5L289 92.5L289 93Z" fill="url(#paint1_linear_121_28)"/>
<path d="M295.333 151C295.333 152.473 296.527 153.667 298 153.667C299.473 153.667 300.667 152.473 300.667 151C300.667 149.527 299.473 148.333 298 148.333C296.527 148.333 295.333 149.527 295.333 151ZM225 151L225 151.5L298 151.5L298 151L298 150.5L225 150.5L225 151Z" fill="url(#paint2_linear_121_28)"/>
<path d="M259.333 220C259.333 221.473 260.527 222.667 262 222.667C263.473 222.667 264.667 221.473 264.667 220C264.667 218.527 263.473 217.333 262 217.333C260.527 217.333 259.333 218.527 259.333 220ZM211 220L211 220.5L262 220.5L262 220L262 219.5L211 219.5L211 220Z" fill="url(#paint3_linear_121_28)"/>
<defs>
<linearGradient id="paint0_linear_121_28" x1="239" y1="42" x2="278" y2="42" gradientUnits="userSpaceOnUse">
<stop stop-color="#8D34C0" stop-opacity="0.12"/>
<stop offset="1" stop-color="#8D34C0"/>
</linearGradient>
<linearGradient id="paint1_linear_121_28" x1="289" y1="93.5" x2="362" y2="93.5" gradientUnits="userSpaceOnUse">
<stop stop-color="#8D34C0" stop-opacity="0.12"/>
<stop offset="1" stop-color="#8D34C0"/>
</linearGradient>
<linearGradient id="paint2_linear_121_28" x1="225" y1="151.5" x2="298" y2="151.5" gradientUnits="userSpaceOnUse">
<stop stop-color="#8D34C0" stop-opacity="0.12"/>
<stop offset="1" stop-color="#8D34C0"/>
</linearGradient>
<linearGradient id="paint3_linear_121_28" x1="211" y1="220.5" x2="262" y2="220.5" gradientUnits="userSpaceOnUse">
<stop stop-color="#8D34C0" stop-opacity="0.12"/>
<stop offset="1" stop-color="#8D34C0"/>
</linearGradient>
<clipPath id="clip0_121_28">
<rect width="222" height="268" fill="white"/>
</clipPath>
</defs>
</svg>
