<svg width="150" height="133" viewBox="0 0 150 133" fill="none" xmlns="http://www.w3.org/2000/svg">
<g clip-path="url(#clip0_99_225)">
<path d="M79.3566 66.4373C74.3971 60.1277 69.4518 53.8246 64.4856 47.5292C62.412 44.8939 60.2899 42.288 58.2096 39.667C56.0042 38.2014 55.9802 36.6987 57.4995 35.4498C61.807 26.2446 66.1212 17.0251 70.4288 7.81978C70.3449 7.00009 70.6019 6.33991 71.3493 5.92657C72.0004 5.86706 72.3076 6.35764 72.6338 6.77044C77.9471 13.4711 83.2328 20.1936 88.5461 26.8942C88.7853 27.197 89.0387 27.5063 89.0911 27.9124C88.9637 28.7026 88.3148 29.1273 87.823 29.6603C83.6629 34.1479 84.9846 41.4608 89.3352 44.78C90.1008 45.3637 91.2859 45.6061 91.4089 46.8603C91.3396 47.4522 91.0724 47.9862 90.8261 48.5127C88.0099 54.5309 85.1937 60.5492 82.3775 66.5675C82.1311 67.0939 81.8923 67.6412 81.4822 68.0737C79.9243 68.628 79.7872 67.3672 79.3775 66.4298L79.3566 66.4373Z" fill="#1B1B1B"/>
<path d="M81.0433 68.1977C84.4321 60.9559 87.8275 53.6998 91.2163 46.4579C91.7627 46.1413 92.2691 46.465 92.7635 46.5923C99.838 48.5673 106.026 43.5199 106.338 37.2663C106.363 36.8792 106.424 36.4912 106.668 36.1546C107.151 35.8255 107.707 35.895 108.233 35.881C116.536 35.6736 124.825 35.4244 133.128 35.217C133.759 35.2002 134.402 35.0847 134.96 35.5194C135.49 36.4958 135.05 37.1397 134.242 37.646C133.814 37.9314 133.63 38.4 133.423 38.8411C129.482 47.2638 125.547 55.6723 121.606 64.0951C121.426 64.4792 121.141 64.8662 121.266 65.3406C121.26 67.0548 120.298 67.8884 118.653 67.7426C118.203 67.7054 117.884 67.3135 117.43 67.3958C106.048 67.7064 94.6876 68.0094 83.306 68.32C82.5169 68.7485 81.7517 69.0148 81.05 68.1835L81.0433 68.1977Z" fill="black"/>
<path d="M134.59 35.5364C125.522 35.7853 116.455 36.0341 107.394 36.2688C107.205 36.2668 107.015 36.2297 106.817 36.2069C106.36 35.8889 106.326 35.37 106.251 34.9013C105.357 28.6729 98.1629 23.3642 90.2744 27.4945C89.8657 27.7021 89.5124 28.1612 88.9575 27.8669C83.6443 21.1662 78.3102 14.4731 72.9969 7.77244C72.5402 7.19452 72.0977 6.62325 71.6618 6.03775C72.2064 5.09592 73.0737 5.53644 73.8375 5.49499C74.2863 5.757 74.7696 5.72303 75.2605 5.70994C85.9199 5.42563 96.5935 5.14797 107.26 4.84944C107.589 4.84767 107.916 4.74059 108.252 4.68949C110.552 4.06614 111.639 4.59213 112.194 6.55137C119.001 15.1651 125.822 23.7856 132.63 32.3993C132.934 32.7846 133.286 33.1054 133.625 33.4546C134.124 34.0525 135.338 34.3082 134.603 35.508L134.59 35.5364Z" fill="#363636"/>
<path d="M40.0331 40.3345C39.1054 43.6118 37.3762 46.2712 34.252 47.879C28.731 50.7239 21.9282 48.3903 19.2589 42.7361C16.685 37.248 19.1981 30.6196 24.7524 28.2586C30.5912 25.7705 37.2311 28.6001 39.4224 34.4989C39.5799 34.9022 39.7308 35.3197 39.8884 35.7229C40.7898 37.2373 40.6394 38.7798 40.0331 40.3345Z" fill="black"/>
<path d="M132.27 78.6406C138.073 76.4134 142.93 78.6513 145.564 82.0866C148.641 86.0931 148.504 91.787 145.255 95.6601C141.89 99.6699 136.271 100.614 131.405 97.9895C127.165 95.693 125.002 90.3625 126.315 85.6699C126.74 84.1693 127.55 82.9183 128.331 81.6189C129.146 79.9533 130.512 79.0317 132.27 78.6406Z" fill="black"/>
<path d="M76.2312 84.1045C80.4073 88.0185 81.5657 92.7575 79.4561 97.3028C77.106 102.325 71.3923 104.768 66.0356 103.007C60.891 101.31 57.7135 95.8174 58.8058 90.4492C59.8848 85.1095 64.9202 81.3784 70.4479 81.8492C70.8837 81.8797 71.3138 81.9595 71.7572 82.0109C73.6347 81.8836 75.2059 82.4107 76.2454 84.1111L76.2312 84.1045Z" fill="black"/>
<path d="M151.23 32.6055C152.322 28.6072 154.642 25.7213 158.679 24.4193C164.345 22.5963 170.472 25.6714 172.403 31.275C174.334 36.8787 171.442 42.9481 165.859 45.0008C160.359 47.0232 154.149 44.2383 151.955 38.7892C151.797 38.386 151.625 37.9761 151.468 37.5728C150.494 35.955 150.627 34.3005 151.258 32.6188L151.23 32.6055Z" fill="black"/>
<path d="M58.6332 -5.52286C60.2768 -6.2973 61.6811 -7.37446 62.9181 -8.68601C63.0805 -7.25724 64.2438 -6.48741 65.041 -5.49004C67.7134 -2.21038 70.475 0.989621 73.1607 4.24083C73.4576 4.60523 73.6103 5.09291 73.8313 5.50852C73.2002 6.08033 72.2943 5.50034 71.6556 6.05128C70.8212 6.35454 70.9153 7.3004 70.4235 7.83337C68.5589 6.52727 67.4422 4.5479 65.962 2.90137C63.7308 0.417823 61.6571 -2.21746 59.5085 -4.76643C59.2626 -5.05492 58.9275 -5.26376 58.6474 -5.51621L58.6332 -5.52286Z" fill="#ACCEED"/>
<path d="M40.0306 40.3347C40.1109 38.794 40.142 37.2477 39.8859 35.7231C45.2365 35.5733 50.587 35.4236 55.9167 35.2815C56.4427 35.2674 56.9886 35.2107 57.4933 35.4642C56.2301 37.1277 57.0978 38.4182 58.2034 39.6814C52.1573 40.3555 46.0851 40.2715 40.0239 40.3489L40.0306 40.3347Z" fill="#ACCEED"/>
<path d="M151.231 32.6054C151.091 34.274 151.077 35.9323 151.441 37.5594C150.879 37.2794 150.299 37.3721 149.717 37.3947C145.125 37.5523 140.553 37.7023 135.961 37.8599C135.379 37.8825 134.778 37.9828 134.243 37.6458C134.288 36.921 135.361 36.3655 134.596 35.5218C134.853 34.5666 133.709 34.274 133.618 33.4685C134.503 33.2061 135.428 33.1533 136.346 33.1148C141.302 32.9193 146.259 33.019 151.217 32.5987L151.231 32.6054Z" fill="#ACCEED"/>
<path d="M132.271 78.6405C130.796 79.4245 129.495 80.4287 128.332 81.6188C125.127 77.5174 121.949 73.3942 118.716 69.3146C118.237 68.7091 118.117 67.8553 117.425 67.4101C117.558 67.3854 117.718 67.3039 117.844 67.3286C119.566 67.6832 120.795 67.1657 121.268 65.3406C122.816 66.3601 123.665 67.9883 124.766 69.371C127.02 72.1771 129.176 75.042 131.388 77.8632C131.627 78.1659 131.962 78.3748 132.242 78.6272L132.271 78.6405Z" fill="#ACCEED"/>
<path d="M76.2318 84.1044C74.8803 83.1077 73.3615 82.4317 71.7436 82.0042C72.2882 81.6173 72.476 80.9941 72.7565 80.4317C74.9611 75.7574 77.159 71.0974 79.3636 66.4232C80.0422 66.8968 80.2757 67.8038 81.0502 68.1836C81.7888 68.5292 82.5597 68.2136 83.3063 68.3201C83.1856 69.0961 82.9161 69.8198 82.5833 70.5312C80.4661 75.0556 78.3556 79.5658 76.2385 84.0901L76.2318 84.1044Z" fill="#ACCEED"/>
<path d="M115.491 -10.9305C116.805 -10.0032 118.226 -9.33854 119.793 -8.95183C117.656 -4.38476 115.519 0.182307 113.389 4.73515C113.076 5.40385 112.698 6.02508 112.2 6.57228C111.413 4.85107 109.865 4.71672 108.258 4.71041C110.681 -0.50355 113.082 -5.70993 115.505 -10.9239L115.491 -10.9305Z" fill="#ACCEED"/>
<path d="M88.9573 27.8662C92.3953 25.6249 96.0318 24.8464 99.9256 26.4778C104.21 28.2743 106.372 31.6449 106.824 36.192C106.659 40.7627 104.755 44.2768 100.568 46.3415C97.484 47.8639 94.3429 47.6947 91.2027 46.4508C86.3821 43.692 84.2334 39.4781 85.055 34.5036C85.5051 31.7659 87.0674 29.7221 88.9573 27.8662Z" fill="#282828"/>
</g>
<defs>
<clipPath id="clip0_99_225">
<rect width="140.801" height="145.742" fill="white" transform="translate(62.7383 -59.3594) rotate(25.0769)"/>
</clipPath>
</defs>
</svg>
