<svg width="239" height="201" viewBox="0 0 239 201" fill="none" xmlns="http://www.w3.org/2000/svg">
<g clip-path="url(#clip0_99_245)">
<path d="M125.475 238.865C121.148 238.3 118.222 235.909 116.216 232.097C108.583 217.584 100.886 203.109 93.2145 188.615C92.655 187.561 92.1599 186.468 91.2597 185.633C90.9832 183.319 91.086 180.986 91.1761 178.672C91.4268 172.334 90.5588 166.035 90.6552 159.711C90.6809 158.033 90.1472 156.645 88.3725 156.208C86.5977 155.771 85.4274 156.818 84.6429 158.213C82.836 161.427 81.1577 164.718 79.6852 168.092C76.7723 174.783 73.0427 181.076 70.1877 187.793C69.9691 188.307 69.6668 188.789 69.1138 189.033C63.616 177.875 58.1117 166.717 52.6395 155.546C51.9708 154.177 51.2827 152.988 49.4694 153.277C34.5962 145.345 19.6908 137.465 4.72762 129.701C3.1072 128.859 1.44176 128.062 0.0078125 126.892C0.419349 119.288 5.44138 114.378 13.0098 114.403C73.1971 114.603 133.384 114.828 193.572 115.053C204.387 115.091 215.209 115.143 226.025 115.252C232.854 115.323 237.683 119.218 238.796 125.607C239.593 130.17 237.902 133.917 234.609 137.041C228.571 142.781 222.546 148.54 216.508 154.286C207.397 162.957 198.272 171.615 189.173 180.305C187.482 181.918 185.701 183.145 183.206 182.696C182.467 181.989 182.293 181.037 182.087 180.092C180.145 171.165 178.229 162.23 176.248 153.315C175.991 152.139 175.779 150.944 174.834 150.063C173.342 148.668 171.336 148.99 169.651 151.008C164.815 156.786 160.141 162.693 155.382 168.536C149.409 175.87 143.525 183.274 137.5 190.563C136.284 192.035 135.628 193.706 135.236 195.538C132.465 208.47 129.61 221.376 126.883 234.321C126.555 235.864 126.472 237.516 125.469 238.865H125.475Z" fill="black"/>
<path d="M73.5163 51.6389C73.5163 45.1471 73.5421 38.6618 73.5099 32.17C73.4842 27.3301 75.5226 23.705 79.7087 21.2883C90.9359 14.8094 102.176 8.34329 113.397 1.84509C117.577 -0.578076 121.711 -0.64235 125.91 1.78724C137.131 8.27901 148.365 14.7515 159.598 21.2176C163.874 23.6793 165.926 27.3494 165.906 32.2857C165.868 45.1021 165.868 57.9186 165.906 70.735C165.919 75.6649 163.881 79.3414 159.605 81.8096C148.442 88.2435 137.285 94.6903 126.135 101.137C121.795 103.644 117.538 103.605 113.178 101.066C102.182 94.6581 91.161 88.3013 80.1138 81.996C75.5612 79.3993 73.407 75.6199 73.4906 70.3815C73.5935 64.134 73.5163 57.8864 73.5163 51.6389Z" fill="black"/>
<path d="M125.473 238.865C126.251 232.945 127.826 227.179 129.035 221.343C130.842 212.628 132.848 203.944 134.584 195.215C135.189 192.188 137.092 190.099 138.873 187.888C149.072 175.239 159.315 162.634 169.546 150.011C170.62 148.68 172.073 148.288 173.635 148.59C175.146 148.886 176.15 149.94 176.484 151.47C178.741 161.882 180.979 172.295 183.223 182.708C181.525 182.881 180.368 181.859 179.243 180.837C177.352 179.115 175.507 177.341 173.616 175.612C171.102 173.304 170.131 173.548 168.864 176.801C163.701 190.08 158.518 203.346 153.412 216.651C152.589 218.804 151.432 220.591 149.728 222.134C144.815 226.594 139.966 231.132 135.092 235.638C132.372 238.158 129.234 239.449 125.473 238.877V238.865Z" fill="#1B1B1B"/>
<path d="M0.0210297 126.898C1.82793 126.931 3.06254 128.197 4.53507 128.968C15.4472 134.669 26.353 140.37 37.2587 146.072C40.5896 147.814 43.9269 149.53 47.232 151.316C48.1065 151.792 49.1804 152.114 49.4826 153.283C45.02 157.403 40.5703 161.536 36.0948 165.637C32.4167 169.011 28.6614 168.703 25.6392 164.75C17.9808 154.723 10.348 144.677 2.72817 134.618C1.01129 132.349 -0.152587 129.849 0.0210297 126.898Z" fill="#1B1B1B"/>
<path d="M69.1133 189.039C69.8913 186.506 71.1067 184.173 72.2705 181.808C76.1158 173.985 79.9161 166.15 83.7807 158.341C85.3368 155.198 87.9154 154.407 90.1209 156.265C90.8861 156.908 91.3427 157.66 91.3363 158.739C91.3298 167.044 92.1015 175.335 91.7864 183.646C91.7607 184.347 91.9536 185.111 91.2591 185.638C90.0374 185.343 89.1178 185.831 88.2497 186.667C85.9413 188.891 83.6071 191.089 81.2408 193.249C76.8039 197.285 72.5663 196.443 69.9235 191.025C69.6084 190.388 69.3834 189.707 69.1133 189.045V189.039Z" fill="#1B1B1B"/>
<path d="M193.769 31.6744C190.329 31.6744 186.882 31.6808 183.442 31.6744C180.715 31.6679 179.333 30.646 179.384 28.7177C179.436 26.8666 180.747 25.9153 183.345 25.9089C189.589 25.8961 195.833 25.8511 202.077 25.941C203.716 25.9603 204.938 25.4847 206.16 24.4113C208.918 21.9753 211.786 19.6678 214.628 17.3282C216.397 15.8756 218.178 15.8627 219.233 17.3475C220.441 19.0572 219.85 20.4905 218.358 21.7246C214.783 24.6813 211.208 27.6443 207.658 30.6331C206.751 31.398 205.761 31.7065 204.578 31.6937C200.977 31.6551 197.376 31.6808 193.769 31.6808V31.6744Z" fill="#66C0BC"/>
<path d="M45.5859 72.0776C49.1869 72.0776 52.7878 72.0583 56.3888 72.084C58.7422 72.1033 60.0347 73.1638 60.0219 74.9764C60.009 76.7761 58.7165 77.8302 56.3566 77.8431C49.9521 77.8623 43.5475 77.8945 37.1494 77.8173C35.6769 77.7981 34.5709 78.2351 33.4842 79.1735C30.642 81.6288 27.7355 84.0199 24.8226 86.398C23.0093 87.8828 21.3438 87.8699 20.1928 86.4559C19.0546 85.0611 19.3955 83.4414 21.2024 81.9245C24.6361 79.045 28.1085 76.2169 31.5229 73.3117C32.5646 72.4247 33.6578 72.039 35.0146 72.0583C38.5383 72.1162 42.0557 72.0776 45.5795 72.0776H45.5859Z" fill="#66C0BC"/>
<path d="M45.3016 31.675C41.9386 31.675 38.582 31.6172 35.219 31.7007C33.6757 31.7393 32.4733 31.2701 31.3094 30.2674C28.0364 27.4522 24.6734 24.7398 21.3618 21.9695C19.5292 20.4333 19.1883 18.8329 20.4551 17.451C21.9855 15.7798 23.5223 16.2298 25.0656 17.5474C27.6827 19.7777 30.4284 21.8602 32.9684 24.1741C34.4409 25.5175 35.9649 25.9867 37.9261 25.9481C44.0027 25.8389 50.0858 25.8967 56.1688 25.916C58.6959 25.916 60.0462 26.9701 60.0205 28.8341C59.9948 30.698 58.6766 31.6686 56.0981 31.6815C52.4971 31.6943 48.8962 31.6815 45.2952 31.6815L45.3016 31.675Z" fill="#66C0BC"/>
<path d="M193.877 72.0779C196.835 72.0779 199.806 72.2064 202.757 72.0393C205.233 71.8979 207.201 72.5471 209.053 74.2375C211.882 76.8214 214.93 79.1738 217.875 81.6356C219.875 83.3131 220.209 84.8429 218.949 86.3276C217.695 87.7995 216.222 87.7288 214.152 86.0255C211.374 83.7373 208.59 81.462 205.87 79.1031C204.841 78.2161 203.806 77.8048 202.423 77.824C196.025 77.8883 189.627 77.8626 183.222 77.8498C180.695 77.8498 179.351 76.7956 179.383 74.9252C179.416 73.0677 180.734 72.0971 183.319 72.0843C186.836 72.0714 190.36 72.0843 193.877 72.0843V72.0779Z" fill="#66C0BC"/>
<path d="M39.849 54.7619C34.3961 54.7619 28.9497 54.7748 23.4968 54.7619C20.9633 54.7555 19.6129 53.7014 19.6451 51.8374C19.6772 49.9734 20.9954 49.0029 23.5868 49.0029C34.409 48.9964 45.2247 48.9964 56.0468 49.0029C58.6575 49.0029 59.9693 49.9541 60.0207 51.8053C60.0722 53.7335 58.6896 54.7619 55.9632 54.7683C50.5939 54.7812 45.2247 54.7683 39.8554 54.7683L39.849 54.7619Z" fill="#66C0BC"/>
<path d="M199.822 48.9901C205.191 48.9901 210.56 48.9772 215.929 48.9901C218.45 48.9965 219.89 50.0699 219.743 51.9275C219.569 54.1578 218.064 54.7684 216.045 54.7684C205.062 54.7427 194.086 54.7427 183.103 54.7684C181.084 54.7684 179.586 54.1578 179.412 51.9275C179.27 50.0635 180.704 48.9965 183.225 48.9901C188.755 48.9772 194.285 48.9901 199.815 48.9901H199.822Z" fill="#66C0BC"/>
<path d="M99.978 52.3973C99.978 48.573 99.9651 44.7551 99.978 40.9307C99.9909 38.379 101.02 36.9971 102.859 36.9971C104.698 36.9971 105.733 38.379 105.74 40.9307C105.752 48.2195 105.727 55.5083 105.759 62.797C105.765 64.5325 105.463 66.0558 103.585 66.615C101.759 67.1549 100.782 65.9722 99.9523 64.5967C97.4702 60.496 94.9881 56.4017 92.4932 52.3074C92.2617 51.9346 92.236 51.3432 91.3164 51.3111C91.3164 55.1997 91.3036 59.0755 91.3293 62.9513C91.3357 64.0247 91.2457 65.0788 90.4548 65.8501C89.6831 66.6021 88.7379 67.0135 87.6062 66.5957C86.333 66.1329 85.5871 65.1881 85.5806 63.8897C85.5356 55.8811 85.5356 47.8724 85.5806 39.8573C85.5871 38.4433 86.4359 37.3956 87.8312 37.0871C89.4645 36.7271 90.5512 37.6334 91.355 38.9832C93.8885 43.2382 96.4285 47.4932 98.9684 51.7417C99.1292 52.0053 99.3221 52.2431 99.5022 52.4938C99.6629 52.4552 99.8172 52.4231 99.978 52.3845V52.3973Z" fill="#868686"/>
<path d="M109.602 51.8895C109.602 48.2001 109.583 44.5172 109.602 40.8278C109.622 38.0319 110.605 36.997 113.313 36.9777C117.563 36.9392 121.813 36.9456 126.064 36.9777C128.424 36.9906 129.768 38.0704 129.78 39.838C129.793 41.612 128.443 42.7046 126.096 42.7304C123.132 42.7625 120.161 42.7818 117.196 42.7175C115.878 42.6854 115.396 43.1096 115.338 44.4915C115.113 49.942 115.062 49.942 120.482 49.942C121.923 49.942 123.376 50.032 124.81 49.9227C126.758 49.7749 128.115 50.649 128.205 52.4744C128.295 54.4027 126.842 55.5146 124.964 55.6753C123.215 55.8296 121.44 55.7139 119.672 55.7139C116.804 55.7139 115.37 57.1558 115.37 60.0396C115.37 61.1644 115.409 62.2828 115.364 63.4076C115.274 65.5158 114.065 66.917 112.38 66.737C110.483 66.5314 109.609 65.2909 109.602 63.4333C109.589 59.5832 109.602 55.7396 109.602 51.8895Z" fill="#868686"/>
<path d="M140.876 53.8428C140.876 50.8797 140.766 47.9167 140.914 44.9664C141.004 43.1025 140.31 42.5176 138.567 42.7233C137.783 42.8132 136.947 42.8261 136.175 42.6718C134.683 42.3697 133.712 41.4056 133.719 39.8502C133.719 38.2947 134.703 37.112 136.188 37.0671C141.223 36.9321 146.271 36.9321 151.312 37.0671C152.804 37.1056 153.788 38.269 153.813 39.818C153.839 41.3735 152.862 42.2926 151.389 42.6847C151.235 42.7233 151.074 42.7168 150.913 42.7361C149.589 42.9032 147.872 42.1319 147.017 43.1603C146.058 44.3044 146.689 46.0848 146.676 47.5824C146.624 52.7051 146.676 57.8214 146.65 62.9442C146.637 65.438 145.493 66.9485 143.666 66.7428C141.487 66.4986 140.844 64.9817 140.876 62.9763C140.914 59.9361 140.889 56.8959 140.889 53.8557L140.876 53.8428Z" fill="#868686"/>
</g>
<defs>
<clipPath id="clip0_99_245">
<rect width="239" height="239" fill="white"/>
</clipPath>
</defs>
</svg>
