<svg width="17" height="21" viewBox="0 0 17 21" fill="none" xmlns="http://www.w3.org/2000/svg">
<path d="M6.18452 21V19.5004H10.8213V21H6.18452ZM17 8.25358C17.0009 9.47011 16.7235 10.6717 16.1878 11.7715C15.6521 12.8713 14.8714 13.8419 13.9021 14.6133C12.9766 15.3541 12.3648 16.4023 12.3648 17.5675V18.0008H4.63946V17.6649C4.63946 16.5403 4.1713 15.4306 3.25816 14.7363C2.02505 13.8001 1.08274 12.5512 0.535467 11.1276C-0.011806 9.70407 -0.142717 8.16132 0.157214 6.67002C0.76906 3.47292 3.3895 0.856155 6.66967 0.191841C7.91185 -0.07268 9.19933 -0.0635406 10.4374 0.218587C11.6754 0.500714 12.8326 1.04865 13.8237 1.82209C14.8147 2.59552 15.6145 3.57477 16.1642 4.6878C16.7139 5.80082 16.9995 7.0193 17 8.25358ZM3.86692 9.00337C3.86692 5.90374 5.69937 3.75484 8.50212 3.75484V2.25526C4.77388 2.25526 2.32185 5.13145 2.32185 9.00337H3.86692Z" fill="#5A4FCF"/>
</svg>
