<svg width="21" height="21" viewBox="0 0 21 21" fill="none" xmlns="http://www.w3.org/2000/svg">
<path d="M16.0968 17.0596C15.4859 16.4156 14.8957 15.7942 14.293 15.1591C13.3911 15.8793 12.3866 16.308 11.25 16.4644C11.25 16.9863 11.2538 17.5007 11.2488 18.0145C11.245 18.3825 10.9659 18.6997 10.6172 18.7467C10.2355 18.7986 9.8662 18.5658 9.77732 18.1966C9.74352 18.0558 9.75416 17.9025 9.75291 17.7548C9.75041 17.3337 9.75166 16.9125 9.75166 16.4882C9.39178 16.3987 9.03503 16.3274 8.68955 16.2204C7.51541 15.8556 6.55531 15.176 5.78736 14.2185C5.7204 14.1353 5.66907 13.9838 5.51886 14.1015C5.39744 14.1966 5.18339 14.1722 5.22283 14.4594C5.45252 16.1165 4.15195 17.4432 2.6511 17.4463C1.28482 17.4488 0.108796 16.4 0.00803017 15.0671C-0.0977428 13.6641 0.852336 12.4469 2.21236 12.2348C3.0091 12.1103 3.70821 12.3199 4.3272 12.8243C4.37539 12.8637 4.42358 12.9019 4.47678 12.945C4.61698 12.87 4.75217 12.7967 4.90363 12.7154C4.16885 10.6284 4.42296 8.68097 5.71727 6.86432C5.67596 6.81989 5.63215 6.76795 5.58333 6.72039C5.03318 6.1891 4.47991 5.66032 3.93227 5.12527C3.83901 5.03391 3.76829 5.00325 3.6306 5.05706C1.98204 5.70287 0.250244 4.70412 0.0224253 2.95193C-0.160956 1.53829 0.814784 0.244172 2.30186 0.0245222C3.60932 -0.168845 4.96496 0.804873 5.20405 2.11589C5.31233 2.71101 5.24723 3.28109 4.96935 3.81989C4.91176 3.93128 4.92866 3.99699 5.01566 4.08022C5.60273 4.64092 6.18605 5.20537 6.78939 5.78798C7.66374 5.11902 8.64574 4.69786 9.75229 4.5483C9.75229 4.04455 9.75103 3.55331 9.75229 3.0627C9.75354 2.56332 10.054 2.2642 10.5534 2.26232C11.0278 2.26107 11.5022 2.26232 12.0017 2.26232C12.0017 1.74417 11.9979 1.24667 12.0029 0.749804C12.0067 0.379966 12.2833 0.0645723 12.6332 0.0176386C13.0175 -0.0336756 13.3755 0.196612 13.4762 0.56645C13.4963 0.640292 13.4982 0.720392 13.4988 0.797989C13.5007 1.5239 13.5013 2.2498 13.4988 2.97634C13.4975 3.45631 13.1896 3.75794 12.7033 3.75982C12.2282 3.76169 11.7532 3.75982 11.2644 3.75982V4.54893C13.0294 4.80988 14.4288 5.67283 15.4615 7.12027C15.6998 7.01388 15.8005 6.83908 15.7638 6.59586C15.5617 5.26795 16.5581 3.89937 17.8905 3.67471C19.3294 3.43191 20.702 4.36057 20.9492 5.74417C21.1507 6.86995 20.6769 7.93816 19.7219 8.51263C18.7843 9.07709 17.6133 8.99323 16.7202 8.29924C16.6895 8.27546 16.6588 8.25106 16.6263 8.2254C16.6031 8.23353 16.5812 8.23854 16.5618 8.24855C16.16 8.46382 16.1675 8.46194 16.2833 8.90312C16.7371 10.6315 16.4911 12.2548 15.5379 13.7686C15.4759 13.8675 15.4089 13.9626 15.3351 14.0733C15.3708 14.1134 15.4033 14.1547 15.4402 14.191C16.0085 14.7492 16.5787 15.3049 17.1432 15.8662C17.2296 15.9526 17.2966 15.9813 17.4224 15.935C19.2775 15.2542 21.1263 16.6415 20.993 18.609C20.9091 19.8481 19.8026 20.94 18.5734 20.9976C17.204 21.0614 16.0261 20.1616 15.7964 18.8875C15.6749 18.2148 15.7895 17.5877 16.0968 17.0602V17.0596Z" fill="#007BFF"/>
</svg>
