<svg width="18" height="18" viewBox="0 0 18 18" fill="none" xmlns="http://www.w3.org/2000/svg">
<path d="M12.5 11.5H11.71L11.43 11.23C12.444 10.0541 13.0012 8.55271 13 7C13 5.71442 12.6188 4.45771 11.9046 3.38879C11.1903 2.31987 10.1752 1.48675 8.98744 0.994782C7.79973 0.502813 6.49279 0.374091 5.23192 0.624895C3.97104 0.875699 2.81285 1.49476 1.90381 2.4038C0.994767 3.31285 0.375703 4.47104 0.124899 5.73191C-0.125905 6.99279 0.00281635 8.29972 0.494786 9.48744C0.986756 10.6752 1.81988 11.6903 2.8888 12.4046C3.95772 13.1188 5.21442 13.5 6.5 13.5C8.11 13.5 9.59 12.91 10.73 11.93L11 12.21V13L16 17.99L17.49 16.5L12.5 11.5ZM6.5 11.5C4.01 11.5 2 9.49 2 7C2 4.51 4.01 2.5 6.5 2.5C8.99 2.5 11 4.51 11 7C11 9.49 8.99 11.5 6.5 11.5Z" fill="black"/>
</svg>
